C:\Users\febre\Documents\GitHub\PredSim-workshop-bcn-2024\S4 Modelling neuromusculoskeletal deficits\Code\Example 3 - Motor control\Results\BCN_CP1\BCN_CP1_v1.mot
version=1
nRows=9
nColumns=29
inDegrees=yes
endheader
                time	         pelvis_tilt	           pelvis_tx	           pelvis_ty	       hip_flexion_l	       hip_flexion_r	        knee_angle_l	        knee_angle_r	       ankle_angle_l	       ankle_angle_r	    lumbar_extension	hamstrings_r/activation	bifemsh_r/activation	glut_max_r/activation	iliopsoas_r/activation	rect_fem_r/activation	  vasti_r/activation	gastroc_r/activation	 soleus_r/activation	tib_ant_r/activation	hamstrings_l/activation	bifemsh_l/activation	glut_max_l/activation	iliopsoas_l/activation	rect_fem_l/activation	  vasti_l/activation	gastroc_l/activation	 soleus_l/activation	tib_ant_l/activation	
          0.00000000	         -9.62040764	          0.00000000	          0.90506972	         -7.50136593	         19.43246966	        -20.58684666	          2.17361975	         -3.53074694	         -2.57127525	          2.64702919	          0.17856091	          0.19973448	          0.30089258	          0.05760915	          0.07252430	          0.05717616	          0.13472186	          0.08214280	          0.30972457	          0.05000000	          0.05000017	          0.05000001	          0.63484815	          0.05000001	          0.06730613	          0.19193181	          0.18352425	          0.05000011	
          0.00961351	         -9.53376972	          0.01541240	          0.90280175	         -6.50664518	         19.11574980	        -23.90410213	          1.20760182	         -5.28733799	         -2.71155128	          2.96561899	          0.16945418	          0.18812559	          0.29190769	          0.05135625	          0.06613213	          0.05338338	          0.12594896	          0.07079904	          0.29732701	          0.08043831	          0.22334115	          0.06587865	          0.54717689	          0.08557666	          0.05801126	          0.16542635	          0.15817985	          0.25890378	
          0.01922703	         -9.43700103	          0.03068009	          0.90018683	         -5.23787646	         18.74387324	        -27.67690721	         -0.15454516	         -6.76659480	         -2.48792888	          3.25507051	          0.16869813	          0.18314446	          0.28959164	          0.05000000	          0.06250661	          0.05000024	          0.11676413	          0.06102181	          0.30045359	          0.06932994	          0.19249812	          0.05678093	          0.47161266	          0.07375873	          0.05000001	          0.14258125	          0.13633547	          0.22314960	
          0.02884054	         -9.33848050	          0.04557088	          0.89761066	         -3.78004287	         18.29275953	        -31.64102215	         -1.39043194	         -6.94624523	         -1.80842088	          3.49479246	          0.16054881	          0.21427709	          0.27422912	          0.05427193	          0.05387455	          0.05209075	          0.16812136	          0.12094695	          0.25896144	          0.07430214	          0.22432193	          0.05941374	          0.40648373	          0.07778316	          0.05000000	          0.12289101	          0.11750776	          0.26336260	
          0.03845405	         -9.24520444	          0.05987700	          0.89582370	         -2.15861080	         17.81673432	        -35.57540570	         -2.59804049	         -6.66100836	         -0.29337141	          3.66574896	          0.14463766	          0.21437437	          0.24458023	          0.05715471	          0.05000000	          0.05000001	          0.18120750	          0.13922663	          0.22319929	          0.07246511	          0.23088451	          0.05969622	          0.35034899	          0.07621232	          0.05000000	          0.10591999	          0.10128014	          0.27356112	
          0.04806757	         -9.16111825	          0.07352742	          0.89520565	         -0.41404427	         17.33940147	        -39.31597706	         -3.67688826	         -6.18996873	          0.98025615	          3.76391711	          0.13003219	          0.22165663	          0.21311940	          0.06778961	          0.05171252	          0.05000115	          0.20398941	          0.17214139	          0.19237583	          0.06651685	          0.21711354	          0.05571120	          0.30196644	          0.07009748	          0.05000000	          0.09219367	          0.08729352	          0.25858717	
          0.05768108	         -9.08228553	          0.08660820	          0.89563076	          1.39410222	         16.88596192	        -42.77025753	         -4.68203010	         -5.50299491	          1.93146508	          3.79666713	          0.11721874	          0.22804894	          0.18641413	          0.08048401	          0.05939945	          0.05173904	          0.22449101	          0.20022207	          0.16580905	          0.06150079	          0.20754181	          0.05300389	          0.26026557	          0.06489110	          0.05000000	          0.07946241	          0.07523843	          0.24640946	
          0.06729459	         -9.00564903	          0.09925604	          0.89678127	          3.21820036	         16.44609843	        -45.89374311	         -5.61796602	         -4.69559253	          2.57565552	          3.77867183	          0.10764415	          0.23450643	          0.16710709	          0.08724137	          0.06078993	          0.05242005	          0.24107057	          0.22277667	          0.14291109	          0.05631624	          0.19224969	          0.05000003	          0.23522738	          0.05954580	          0.05000000	          0.07021607	          0.06484814	          0.22937448	
          0.07690811	         -8.92963284	          0.11158257	          0.89836318	          5.02889274	         15.99607622	        -48.67707589	         -6.46320158	         -3.79082048	          2.96961499	          3.72262867	          0.10032805	          0.24254539	          0.15286929	          0.09215206	          0.05852629	          0.05201427	          0.25386361	          0.24095195	          0.12317531	          0.05316436	          0.18449689	          0.05000000	          0.21746192	          0.05638533	          0.05000000	          0.06297171	          0.05819857	          0.21903280	
